<svg width="646" height="646" viewBox="0 0 646 646" fill="none" xmlns="http://www.w3.org/2000/svg">
<path d="M323 0L602.726 161.5V484.5L323 646L43.2738 484.5V161.5L323 0Z" fill="#23868B"/>
<path d="M466.182 260.312H361.241L399.98 142.428C403.617 128.623 393.16 115 378.883 115H247.934C237.022 115 227.746 123.083 226.291 133.891L197.191 351.859C195.464 364.937 205.649 376.562 218.834 376.562H326.776L284.854 553.208C281.581 567.013 292.129 580 306.042 580C313.681 580 320.956 576.004 324.957 569.102L485.005 293.008C493.462 278.567 483.005 260.312 466.182 260.312Z" fill="white"/>
</svg>
