<svg width="650" height="266" viewBox="0 0 650 266" fill="none" xmlns="http://www.w3.org/2000/svg">
<path fill-rule="evenodd" clip-rule="evenodd" d="M126.967 41.8057C126.967 37.7791 130.223 34.5223 134.257 34.5223H387.831C391.858 34.5223 395.121 37.7812 395.121 41.8057V215.348C395.121 219.375 391.865 222.632 387.831 222.632H134.257C130.23 222.632 126.967 219.373 126.967 215.348V41.8057Z" fill="white" stroke="#23868B" stroke-width="2.08143"/>
<path fill-rule="evenodd" clip-rule="evenodd" d="M143.369 53.7772C143.369 52.0531 144.773 50.6534 146.495 50.6534H375.334C377.062 50.6534 378.46 52.0451 378.46 53.7772V183.083C378.46 184.807 377.056 186.207 375.334 186.207H146.495C144.767 186.207 143.369 184.815 143.369 183.083V53.7772Z" fill="white" stroke="#23868B" stroke-width="2.08143"/>
<path fill-rule="evenodd" clip-rule="evenodd" d="M241.949 222.632H280.4L282.996 256.195H239.353L241.949 222.632Z" fill="white" stroke="#23868B" stroke-width="2.08143"/>
<path fill-rule="evenodd" clip-rule="evenodd" d="M223.294 263.482V259.967C223.294 257.887 224.984 256.195 227.064 256.195H295.286C297.362 256.195 299.056 257.887 299.056 259.967V263.482C299.056 263.628 298.943 263.74 298.794 263.74H223.555C223.41 263.74 223.294 263.624 223.294 263.482Z" fill="white" stroke="#23868B" stroke-width="2.08143"/>
<path d="M261.175 210.663C263.835 210.663 265.991 208.508 265.991 205.85C265.991 203.192 263.835 201.037 261.175 201.037C258.515 201.037 256.358 203.192 256.358 205.85C256.358 208.508 258.515 210.663 261.175 210.663Z" stroke="#23868B" stroke-width="2.08143"/>
<path d="M147.537 162.79H108.479C105.03 162.79 102.234 165.586 102.234 169.035V257.496C102.234 260.944 105.03 263.74 108.479 263.74H147.537C150.986 263.74 153.781 260.944 153.781 257.496V169.035C153.781 165.586 150.986 162.79 147.537 162.79Z" fill="white" stroke="#23868B" stroke-width="2.08143"/>
<path fill-rule="evenodd" clip-rule="evenodd" d="M102.234 173.978H153.781V248.728H102.234V173.978Z" fill="white" stroke="#23868B" stroke-width="2.08143"/>
<path d="M116.812 167.714H139.464C139.762 167.714 140.004 167.956 140.004 168.254C140.004 168.553 139.762 168.795 139.464 168.795H116.812C116.514 168.795 116.271 168.553 116.271 168.254C116.271 167.956 116.514 167.714 116.812 167.714Z" fill="#7510F7" stroke="#23868B"/>
<path d="M128.111 253.572H128.114C129.476 253.572 130.58 254.677 130.58 256.039C130.58 257.4 129.476 258.505 128.114 258.505H128.111C126.749 258.505 125.645 257.4 125.645 256.039C125.645 254.677 126.749 253.572 128.111 253.572Z" fill="#23868B" stroke="#23868B"/>
<path d="M116.813 215.086C118.97 215.086 120.719 213.339 120.719 211.184C120.719 209.028 118.97 207.281 116.813 207.281C114.657 207.281 112.908 209.028 112.908 211.184C112.908 213.339 114.657 215.086 116.813 215.086Z" fill="white" stroke="#23868B" stroke-width="2.08143"/>
<path d="M126.966 204.919H143.108C143.407 204.919 143.649 205.161 143.649 205.46C143.649 205.758 143.407 206 143.108 206H126.966C126.667 206 126.425 205.758 126.425 205.46C126.425 205.161 126.667 204.919 126.966 204.919Z" fill="#23868B" stroke="#23868B"/>
<path d="M126.966 210.643H137.901C138.2 210.643 138.442 210.885 138.442 211.184C138.442 211.482 138.2 211.724 137.901 211.724H126.966C126.667 211.724 126.425 211.482 126.425 211.184C126.425 210.885 126.667 210.643 126.966 210.643Z" fill="#23868B" stroke="#23868B"/>
<path d="M126.966 216.367H132.694C132.993 216.367 133.235 216.609 133.235 216.908C133.235 217.206 132.993 217.448 132.694 217.448H126.966C126.667 217.448 126.425 217.206 126.425 216.908C126.425 216.609 126.667 216.367 126.966 216.367Z" fill="#23868B" stroke="#23868B"/>
<path d="M75.8084 211.704C97.8798 211.704 115.772 193.823 115.772 171.767C115.772 149.71 97.8798 131.829 75.8084 131.829C53.7371 131.829 35.8447 149.71 35.8447 171.767C35.8447 193.823 53.7371 211.704 75.8084 211.704Z" fill="white" stroke="#23868B" stroke-width="2.08143"/>
<path d="M507.074 123.503H326.908C323.46 123.503 320.664 126.299 320.664 129.748V246.568C320.664 250.017 323.46 252.812 326.908 252.812H507.074C510.523 252.812 513.318 250.017 513.318 246.568V129.748C513.318 126.299 510.523 123.503 507.074 123.503Z" fill="white" stroke="#23868B" stroke-width="2.08143"/>
<path fill-rule="evenodd" clip-rule="evenodd" d="M307.386 253.066V258.276C307.386 261.289 309.834 263.74 312.848 263.74H521.136C524.147 263.74 526.598 261.291 526.598 258.276V253.066C526.598 252.925 526.485 252.812 526.339 252.812H307.645C307.498 252.812 307.386 252.925 307.386 253.066Z" fill="white" stroke="#23868B" stroke-width="2.08143"/>
<path fill-rule="evenodd" clip-rule="evenodd" d="M431.388 252.929L402.229 252.929C403.393 256.002 406.362 258.133 409.767 258.133H423.85C427.256 258.133 430.225 256.002 431.388 252.929Z" fill="white" stroke="#23868B" stroke-width="2.08143"/>
<path d="M502.492 135.732H331.335C330.186 135.732 329.254 136.664 329.254 137.813V238.724C329.254 239.873 330.186 240.805 331.335 240.805H502.492C503.642 240.805 504.574 239.873 504.574 238.724V137.813C504.574 136.664 503.642 135.732 502.492 135.732Z" fill="white" stroke="#23868B" stroke-width="2.08143"/>
<path d="M256.119 52.995C256.119 53.4371 255.76 53.7959 255.317 53.7959C254.874 53.7959 254.516 53.4371 254.516 52.995C254.516 52.553 254.874 52.1941 255.317 52.1941C255.76 52.1941 256.119 52.553 256.119 52.995Z" fill="#293347" stroke="#23868B"/>
<path fill-rule="evenodd" clip-rule="evenodd" d="M180.858 15.0089H301.137V130.269C301.137 134.29 297.867 137.553 293.845 137.553H188.15C184.125 137.553 180.858 134.289 180.858 130.269V15.0089Z" fill="white" stroke="#23868B" stroke-width="2.08143"/>
<path fill-rule="evenodd" clip-rule="evenodd" d="M180.858 9.27847C180.858 5.26034 184.128 2 188.15 2H293.845C297.872 2 301.137 5.25685 301.137 9.27847V17.0904H180.858V9.27847Z" fill="white" stroke="#23868B" stroke-width="2.08143"/>
<path d="M192.053 11.8868C193.347 11.8868 194.396 10.8384 194.396 9.54518C194.396 8.25195 193.347 7.20358 192.053 7.20358C190.759 7.20358 189.71 8.25195 189.71 9.54518C189.71 10.8384 190.759 11.8868 192.053 11.8868Z" fill="#23868B"/>
<path d="M199.864 11.8868C201.158 11.8868 202.207 10.8384 202.207 9.54518C202.207 8.25195 201.158 7.20358 199.864 7.20358C198.57 7.20358 197.521 8.25195 197.521 9.54518C197.521 10.8384 198.57 11.8868 199.864 11.8868Z" fill="#23868B"/>
<path d="M207.673 11.8868C208.967 11.8868 210.016 10.8384 210.016 9.54518C210.016 8.25195 208.967 7.20358 207.673 7.20358C206.379 7.20358 205.33 8.25195 205.33 9.54518C205.33 10.8384 206.379 11.8868 207.673 11.8868Z" fill="#23868B"/>
<path d="M199.083 90.9811H196.478C195.903 90.9811 195.438 91.4471 195.438 92.0219C195.438 92.5966 195.903 93.0626 196.478 93.0626H199.083C199.658 93.0626 200.124 92.5966 200.124 92.0219C200.124 91.4471 199.658 90.9811 199.083 90.9811Z" fill="#23868B"/>
<path d="M199.083 38.9454H196.478C195.903 38.9454 195.438 39.4113 195.438 39.9861C195.438 40.5609 195.903 41.0268 196.478 41.0268H199.083C199.658 41.0268 200.124 40.5609 200.124 39.9861C200.124 39.4113 199.658 38.9454 199.083 38.9454Z" fill="#23868B"/>
<path fill-rule="evenodd" clip-rule="evenodd" d="M204.289 38.9454H211.319C211.894 38.9454 212.36 39.4113 212.36 39.9861C212.36 40.5609 211.894 41.0268 211.319 41.0268H204.289C203.714 41.0268 203.248 40.5609 203.248 39.9861C203.248 39.4113 203.714 38.9454 204.289 38.9454Z" fill="#23868B"/>
<path fill-rule="evenodd" clip-rule="evenodd" d="M216.004 38.9454H223.034C223.609 38.9454 224.075 39.4113 224.075 39.9861C224.075 40.5609 223.609 41.0268 223.034 41.0268H216.004C215.429 41.0268 214.963 40.5609 214.963 39.9861C214.963 39.4113 215.429 38.9454 216.004 38.9454Z" fill="#23868B"/>
<path fill-rule="evenodd" clip-rule="evenodd" d="M227.719 38.9454H240.738C241.313 38.9454 241.779 39.4113 241.779 39.9861C241.779 40.5609 241.313 41.0268 240.738 41.0268H227.719C227.145 41.0268 226.679 40.5609 226.679 39.9861C226.679 39.4113 227.145 38.9454 227.719 38.9454Z" fill="#23868B"/>
<path fill-rule="evenodd" clip-rule="evenodd" d="M245.424 38.9454H264.69C265.265 38.9454 265.731 39.4113 265.731 39.9861C265.731 40.5609 265.265 41.0268 264.69 41.0268H245.424C244.849 41.0268 244.383 40.5609 244.383 39.9861C244.383 39.4113 244.849 38.9454 245.424 38.9454Z" fill="#23868B"/>
<path d="M199.083 49.3525H196.478C195.903 49.3525 195.438 49.8185 195.438 50.3932C195.438 50.968 195.903 51.434 196.478 51.434H199.083C199.658 51.434 200.124 50.968 200.124 50.3932C200.124 49.8185 199.658 49.3525 199.083 49.3525Z" fill="#23868B"/>
<path d="M199.083 59.7597H196.478C195.903 59.7597 195.438 60.2256 195.438 60.8004C195.438 61.3752 195.903 61.8411 196.478 61.8411H199.083C199.658 61.8411 200.124 61.3752 200.124 60.8004C200.124 60.2256 199.658 59.7597 199.083 59.7597Z" fill="#23868B"/>
<path d="M199.083 70.1668H196.478C195.903 70.1668 195.438 70.6328 195.438 71.2076C195.438 71.7823 195.903 72.2483 196.478 72.2483H199.083C199.658 72.2483 200.124 71.7823 200.124 71.2076C200.124 70.6328 199.658 70.1668 199.083 70.1668Z" fill="#23868B"/>
<path d="M199.083 80.574H196.478C195.903 80.574 195.438 81.0399 195.438 81.6147C195.438 82.1895 195.903 82.6554 196.478 82.6554H199.083C199.658 82.6554 200.124 82.1895 200.124 81.6147C200.124 81.0399 199.658 80.574 199.083 80.574Z" fill="#23868B"/>
<path d="M199.083 101.388H196.478C195.903 101.388 195.438 101.854 195.438 102.429C195.438 103.004 195.903 103.47 196.478 103.47H199.083C199.658 103.47 200.124 103.004 200.124 102.429C200.124 101.854 199.658 101.388 199.083 101.388Z" fill="#23868B"/>
<path d="M199.083 111.795H196.478C195.903 111.795 195.438 112.261 195.438 112.836C195.438 113.411 195.903 113.877 196.478 113.877H199.083C199.658 113.877 200.124 113.411 200.124 112.836C200.124 112.261 199.658 111.795 199.083 111.795Z" fill="#23868B"/>
<path d="M220.432 49.3525H204.289C203.714 49.3525 203.248 49.8185 203.248 50.3932C203.248 50.968 203.714 51.434 204.289 51.434H220.432C221.006 51.434 221.472 50.968 221.472 50.3932C221.472 49.8185 221.006 49.3525 220.432 49.3525Z" fill="#23868B"/>
<path d="M254.276 49.3525H225.116C224.541 49.3525 224.075 49.8185 224.075 50.3932C224.075 50.968 224.541 51.434 225.116 51.434H254.276C254.851 51.434 255.317 50.968 255.317 50.3932C255.317 49.8185 254.851 49.3525 254.276 49.3525Z" fill="#23868B"/>
<path d="M269.896 49.3525H258.961C258.386 49.3525 257.92 49.8185 257.92 50.3932C257.92 50.968 258.386 51.434 258.961 51.434H269.896C270.471 51.434 270.937 50.968 270.937 50.3932C270.937 49.8185 270.471 49.3525 269.896 49.3525Z" fill="#23868B"/>
<path d="M215.225 59.7597H204.289C203.714 59.7597 203.248 60.2256 203.248 60.8004C203.248 61.3752 203.714 61.8411 204.289 61.8411H215.225C215.799 61.8411 216.265 61.3752 216.265 60.8004C216.265 60.2256 215.799 59.7597 215.225 59.7597Z" fill="#23868B"/>
<path d="M230.845 59.7597H219.909C219.334 59.7597 218.868 60.2256 218.868 60.8004C218.868 61.3752 219.334 61.8411 219.909 61.8411H230.845C231.419 61.8411 231.885 61.3752 231.885 60.8004C231.885 60.2256 231.419 59.7597 230.845 59.7597Z" fill="#23868B"/>
<path d="M241.259 59.7597H235.53C234.955 59.7597 234.489 60.2256 234.489 60.8004C234.489 61.3752 234.955 61.8411 235.53 61.8411H241.259C241.834 61.8411 242.3 61.3752 242.3 60.8004C242.3 60.2256 241.834 59.7597 241.259 59.7597Z" fill="#23868B"/>
<path d="M228.242 70.1668H204.289C203.714 70.1668 203.248 70.6328 203.248 71.2076C203.248 71.7823 203.714 72.2483 204.289 72.2483H228.242C228.817 72.2483 229.283 71.7823 229.283 71.2076C229.283 70.6328 228.817 70.1668 228.242 70.1668Z" fill="#23868B"/>
<path d="M249.069 70.1668H232.926C232.352 70.1668 231.886 70.6328 231.886 71.2076C231.886 71.7823 232.352 72.2483 232.926 72.2483H249.069C249.644 72.2483 250.11 71.7823 250.11 71.2076C250.11 70.6328 249.644 70.1668 249.069 70.1668Z" fill="#23868B"/>
<path d="M228.242 80.574H204.289C203.714 80.574 203.248 81.0399 203.248 81.6147C203.248 82.1895 203.714 82.6554 204.289 82.6554H228.242C228.817 82.6554 229.283 82.1895 229.283 81.6147C229.283 81.0399 228.817 80.574 228.242 80.574Z" fill="#23868B"/>
<path d="M264.69 80.574H232.926C232.352 80.574 231.886 81.0399 231.886 81.6147C231.886 82.1895 232.352 82.6554 232.926 82.6554H264.69C265.265 82.6554 265.731 82.1895 265.731 81.6147C265.731 81.0399 265.265 80.574 264.69 80.574Z" fill="#23868B"/>
<path d="M220.432 90.9811H204.289C203.714 90.9811 203.248 91.4471 203.248 92.0219C203.248 92.5966 203.714 93.0626 204.289 93.0626H220.432C221.006 93.0626 221.472 92.5966 221.472 92.0219C221.472 91.4471 221.006 90.9811 220.432 90.9811Z" fill="#23868B"/>
<path d="M241.259 90.9811H225.116C224.541 90.9811 224.075 91.4471 224.075 92.0219C224.075 92.5966 224.541 93.0626 225.116 93.0626H241.259C241.833 93.0626 242.299 92.5966 242.299 92.0219C242.299 91.4471 241.833 90.9811 241.259 90.9811Z" fill="#23868B"/>
<path d="M254.276 90.9811H245.944C245.369 90.9811 244.903 91.4471 244.903 92.0219C244.903 92.5966 245.369 93.0626 245.944 93.0626H254.276C254.851 93.0626 255.317 92.5966 255.317 92.0219C255.317 91.4471 254.851 90.9811 254.276 90.9811Z" fill="#23868B"/>
<path d="M236.052 101.388H204.289C203.714 101.388 203.248 101.854 203.248 102.429C203.248 103.004 203.714 103.47 204.289 103.47H236.052C236.627 103.47 237.093 103.004 237.093 102.429C237.093 101.854 236.627 101.388 236.052 101.388Z" fill="#23868B"/>
<path d="M217.828 111.795H204.289C203.714 111.795 203.248 112.261 203.248 112.836C203.248 113.411 203.714 113.877 204.289 113.877H217.828C218.403 113.877 218.869 113.411 218.869 112.836C218.869 112.261 218.403 111.795 217.828 111.795Z" fill="#23868B"/>
<path fill-rule="evenodd" clip-rule="evenodd" d="M415.951 96.7051H558.619V198.184C558.619 202.204 555.359 205.46 551.333 205.46H423.237C419.216 205.46 415.951 202.198 415.951 198.184V96.7051Z" fill="white" stroke="#23868B" stroke-width="2.08143"/>
<path fill-rule="evenodd" clip-rule="evenodd" d="M415.951 90.9746C415.951 86.9534 419.211 83.6961 423.237 83.6961H551.333C555.358 83.6961 558.619 86.9532 558.619 90.9746V98.7865H415.951V90.9746Z" fill="white" stroke="#23868B" stroke-width="2.08143"/>
<path d="M428.988 91.2413C428.988 92.2581 428.163 93.0829 427.145 93.0829C426.127 93.0829 425.302 92.2581 425.302 91.2413C425.302 90.2245 426.127 89.3997 427.145 89.3997C428.163 89.3997 428.988 90.2245 428.988 91.2413Z" fill="#23868B" stroke="#23868B"/>
<path d="M436.799 91.2413C436.799 92.2581 435.974 93.0829 434.955 93.0829C433.937 93.0829 433.112 92.2581 433.112 91.2413C433.112 90.2245 433.937 89.3997 434.955 89.3997C435.974 89.3997 436.799 90.2245 436.799 91.2413Z" fill="#23868B" stroke="#23868B"/>
<path d="M444.609 91.2413C444.609 92.2581 443.784 93.0829 442.766 93.0829C441.748 93.0829 440.923 92.2581 440.923 91.2413C440.923 90.2245 441.748 89.3997 442.766 89.3997C443.784 89.3997 444.609 90.2245 444.609 91.2413Z" fill="#23868B" stroke="#23868B"/>
<path d="M504.207 177.1C518.586 177.1 530.242 165.452 530.242 151.082C530.242 136.713 518.586 125.065 504.207 125.065C489.829 125.065 478.173 136.713 478.173 151.082C478.173 165.452 489.829 177.1 504.207 177.1Z" fill="white" stroke="#23868B" stroke-width="2.34161"/>
<path fill-rule="evenodd" clip-rule="evenodd" d="M501.343 121.942V128.187H507.592V121.942H501.343Z" fill="white" stroke="#23868B" stroke-width="2.08143"/>
<path fill-rule="evenodd" clip-rule="evenodd" d="M501.082 173.978V180.222H507.332V173.978H501.082Z" fill="white" stroke="#23868B" stroke-width="2.08143"/>
<path fill-rule="evenodd" clip-rule="evenodd" d="M475.048 148.22V154.465H481.297V148.22H475.048Z" fill="white" stroke="#23868B" stroke-width="2.08143"/>
<path fill-rule="evenodd" clip-rule="evenodd" d="M526.856 148.22V154.465H533.106V148.22H526.856Z" fill="white" stroke="#23868B" stroke-width="2.08143"/>
<path d="M530.242 127.666V147.18" stroke="#23868B" stroke-width="2.08143" stroke-linecap="square"/>
<path d="M530.242 154.985V174.499" stroke="#23868B" stroke-width="2.08143" stroke-linecap="square"/>
<path d="M532.865 126.886C532.865 128.334 531.691 129.508 530.241 129.508C528.792 129.508 527.617 128.334 527.617 126.886C527.617 125.438 528.792 124.264 530.241 124.264C531.691 124.264 532.865 125.438 532.865 126.886Z" fill="#23868B" stroke="#23868B"/>
<path d="M532.865 176.32C532.865 177.768 531.691 178.942 530.241 178.942C528.792 178.942 527.617 177.768 527.617 176.32C527.617 174.872 528.792 173.698 530.241 173.698C531.691 173.698 532.865 174.872 532.865 176.32Z" fill="#23868B" stroke="#23868B"/>
<path d="M454.484 119.601H444.585C442.861 119.601 441.463 120.999 441.463 122.723V132.61C441.463 134.334 442.861 135.732 444.585 135.732H454.484C456.208 135.732 457.606 134.334 457.606 132.61V122.723C457.606 120.999 456.208 119.601 454.484 119.601Z" fill="white" stroke="#23868B" stroke-width="2.08143"/>
<path d="M454.484 143.017H444.585C442.861 143.017 441.463 144.415 441.463 146.139V156.026C441.463 157.75 442.861 159.148 444.585 159.148H454.484C456.208 159.148 457.606 157.75 457.606 156.026V146.139C457.606 144.415 456.208 143.017 454.484 143.017Z" fill="white" stroke="#23868B" stroke-width="2.08143"/>
<path d="M454.484 166.433H444.585C442.861 166.433 441.463 167.831 441.463 169.555V179.442C441.463 181.166 442.861 182.564 444.585 182.564H454.484C456.208 182.564 457.606 181.166 457.606 179.442V169.555C457.606 167.831 456.208 166.433 454.484 166.433Z" fill="white" stroke="#23868B" stroke-width="2.08143"/>
<path d="M633.339 254.634C641.966 254.634 648.959 247.644 648.959 239.023C648.959 230.401 641.966 223.412 633.339 223.412C624.711 223.412 617.718 230.401 617.718 239.023C617.718 247.644 624.711 254.634 633.339 254.634Z" fill="white" stroke="#23868B" stroke-width="2.08143"/>
<path d="M633.339 248.129C638.371 248.129 642.451 244.052 642.451 239.023C642.451 233.994 638.371 229.917 633.339 229.917C628.306 229.917 624.227 233.994 624.227 239.023C624.227 244.052 628.306 248.129 633.339 248.129Z" fill="white" stroke="#23868B" stroke-width="2.08143"/>
<path d="M612.511 220.55C615.386 220.55 617.718 218.22 617.718 215.347C617.718 212.473 615.386 210.143 612.511 210.143C609.635 210.143 607.304 212.473 607.304 215.347C607.304 218.22 609.635 220.55 612.511 220.55Z" fill="white" stroke="#23868B" stroke-width="2.08143"/>
<path fill-rule="evenodd" clip-rule="evenodd" d="M589.599 214.046C589.025 214.046 588.559 214.512 588.559 215.086V258.796C588.559 261.67 590.888 264 593.762 264H629.68C632.553 264 634.883 261.67 634.883 258.796V215.086C634.883 214.512 634.417 214.046 633.842 214.046H589.599Z" fill="white" stroke="#23868B" stroke-width="2.08143"/>
<path d="M621.105 228.095H613.81C612.085 228.095 610.688 229.493 610.688 231.217V241.625C610.688 243.349 612.085 244.747 613.81 244.747H621.105C622.829 244.747 624.227 243.349 624.227 241.625V231.217C624.227 229.493 622.829 228.095 621.105 228.095Z" fill="white" stroke="#23868B" stroke-width="2.08143"/>
<path d="M617.327 214.436V226.274" stroke="#23868B" stroke-width="2.08143" stroke-linecap="square"/>
<path fill-rule="evenodd" clip-rule="evenodd" d="M558.88 263.74C567.507 263.74 574.5 263.74 574.5 263.74C574.5 255.118 567.507 248.129 558.88 248.129C550.252 248.129 543.259 255.118 543.259 263.74C543.259 263.74 550.252 263.74 558.88 263.74Z" fill="white" stroke="#23868B" stroke-width="2.08143"/>
<path d="M559.921 248.65C559.921 248.075 559.454 247.609 558.879 247.609C558.304 247.609 557.838 248.075 557.838 248.65V249.95C557.838 250.525 558.304 250.991 558.879 250.991C559.454 250.991 559.921 250.525 559.921 249.95V248.65Z" fill="#23868B"/>
<path fill-rule="evenodd" clip-rule="evenodd" d="M17.3507 233.039C8.87273 233.039 2 239.911 2 248.389C2 256.867 8.87273 263.74 17.3507 263.74H80.3663C81.2285 263.74 81.9274 263.041 81.9274 262.179V259.763C81.9274 258.671 81.083 257.764 79.9934 257.687C72.8397 257.179 69.0398 254.036 69.0398 248.389C69.0398 242.743 72.8397 239.6 79.9934 239.092C81.083 239.014 81.9274 238.108 81.9274 237.016V234.6C81.9274 233.738 81.2285 233.039 80.3663 233.039H17.3507Z" fill="white" stroke="#23868B" stroke-width="2.08143"/>
<path d="M81.1453 258.34C81.1453 258.592 80.9411 258.796 80.6891 258.796H73.3123H17.1003C11.3489 258.796 6.68652 254.137 6.68652 248.389C6.68652 242.642 11.3489 237.982 17.1003 237.982H73.3123H80.6891C80.9411 237.982 81.1453 238.186 81.1453 238.438" stroke="#23868B" stroke-width="2.08143"/>
<path d="M16.0583 244.466H68.6494C68.9481 244.466 69.1901 244.708 69.1901 245.007C69.1901 245.306 68.948 245.548 68.6494 245.548H16.0583C15.7597 245.548 15.5176 245.306 15.5176 245.007C15.5176 244.708 15.7597 244.466 16.0583 244.466Z" fill="#7510F7" stroke="#23868B"/>
<path d="M16.0583 250.971H68.6494C68.9481 250.971 69.1901 251.213 69.1901 251.511C69.1901 251.81 68.9481 252.052 68.6494 252.052H16.0583C15.7597 252.052 15.5176 251.81 15.5176 251.511C15.5176 251.213 15.7597 250.971 16.0583 250.971Z" fill="#7510F7" stroke="#23868B"/>
<path d="M66.0854 181.096C64.8077 179.961 63.53 178.825 62.2524 177.69C60.2163 175.883 58.186 174.071 56.1499 172.264C55.6832 171.852 55.2164 171.435 54.7555 171.024C54.7555 171.569 54.7555 172.119 54.7555 172.663C56.0332 171.528 57.3109 170.393 58.5885 169.258C60.6246 167.451 62.6549 165.638 64.691 163.831C65.1577 163.42 65.6245 163.003 66.0854 162.591C66.5404 162.186 66.5346 161.358 66.0854 160.952C65.6011 160.506 64.9244 160.518 64.4343 160.952C63.1566 162.088 61.879 163.223 60.6013 164.358C58.5652 166.165 56.5349 167.978 54.4988 169.785C54.0321 170.196 53.5654 170.613 53.1045 171.024C52.6553 171.424 52.6553 172.264 53.1045 172.663C54.3822 173.798 55.6598 174.933 56.9375 176.069C58.9736 177.876 61.0039 179.688 63.04 181.495C63.5067 181.907 63.9734 182.324 64.4343 182.735C64.8894 183.14 65.642 183.216 66.0854 182.735C66.4937 182.295 66.5696 181.53 66.0854 181.096Z" fill="#23868B"/>
<path d="M85.5422 162.594C86.8199 163.729 88.0976 164.865 89.3752 166C91.4113 167.807 93.4416 169.62 95.4777 171.427C95.9444 171.838 96.4112 172.255 96.8721 172.666C96.8721 172.122 96.8721 171.571 96.8721 171.027C95.5944 172.162 94.3167 173.297 93.0391 174.432C91.003 176.239 88.9727 178.052 86.9366 179.859C86.4699 180.27 86.0031 180.687 85.5422 181.099C85.0872 181.504 85.093 182.332 85.5422 182.738C86.0265 183.184 86.7032 183.172 87.1933 182.738C88.4709 181.602 89.7486 180.467 91.0263 179.332C93.0624 177.525 95.0927 175.712 97.1288 173.905C97.5955 173.494 98.0622 173.077 98.5231 172.666C98.9723 172.266 98.9723 171.427 98.5231 171.027C97.2454 169.892 95.9678 168.757 94.6901 167.621C92.654 165.814 90.6237 164.002 88.5876 162.195C88.1209 161.783 87.6542 161.366 87.1933 160.955C86.7382 160.55 85.9856 160.475 85.5422 160.955C85.1338 161.395 85.058 162.16 85.5422 162.594Z" fill="#23868B"/>
<path d="M71.6532 187.916C72.0032 186.874 72.3474 185.831 72.6975 184.783C73.5317 182.275 74.366 179.773 75.2003 177.266C76.2038 174.242 77.2072 171.225 78.2165 168.202C79.0858 165.59 79.9551 162.978 80.8244 160.366C81.2386 159.097 81.7053 157.835 82.0904 156.549C82.0962 156.531 82.102 156.514 82.1079 156.497C82.3004 155.923 81.8862 155.205 81.2911 155.072C80.6493 154.927 80.0601 155.263 79.8559 155.883C79.5059 156.925 79.1616 157.968 78.8116 159.016C77.9773 161.524 77.143 164.026 76.3088 166.534C75.3053 169.557 74.3018 172.574 73.2925 175.598C72.4233 178.21 71.554 180.822 70.6847 183.434C70.2705 184.696 69.8037 185.959 69.4187 187.245C69.4129 187.262 69.407 187.279 69.4012 187.297C69.2087 187.87 69.6229 188.588 70.218 188.721C70.8597 188.866 71.449 188.53 71.6532 187.916Z" fill="#23868B"/>
</svg>
