<svg width="156" height="158" viewBox="0 0 156 158" fill="none" xmlns="http://www.w3.org/2000/svg">
<path d="M10.008 146.502H12.672V151.614C11.988 152.13 11.196 152.526 10.296 152.802C9.396 153.078 8.49 153.216 7.578 153.216C6.27 153.216 5.094 152.94 4.05 152.388C3.006 151.824 2.184 151.05 1.584 150.066C0.996 149.07 0.702 147.948 0.702 146.7C0.702 145.452 0.996 144.336 1.584 143.352C2.184 142.356 3.012 141.582 4.068 141.03C5.124 140.466 6.312 140.184 7.632 140.184C8.736 140.184 9.738 140.37 10.638 140.742C11.538 141.114 12.294 141.654 12.906 142.362L11.034 144.09C10.134 143.142 9.048 142.668 7.776 142.668C6.972 142.668 6.258 142.836 5.634 143.172C5.01 143.508 4.524 143.982 4.176 144.594C3.828 145.206 3.654 145.908 3.654 146.7C3.654 147.48 3.828 148.176 4.176 148.788C4.524 149.4 5.004 149.88 5.616 150.228C6.24 150.564 6.948 150.732 7.74 150.732C8.58 150.732 9.336 150.552 10.008 150.192V146.502ZM24.6687 148.194C24.6687 148.23 24.6507 148.482 24.6147 148.95H17.2887C17.4207 149.55 17.7327 150.024 18.2247 150.372C18.7167 150.72 19.3287 150.894 20.0607 150.894C20.5647 150.894 21.0087 150.822 21.3927 150.678C21.7887 150.522 22.1547 150.282 22.4907 149.958L23.9847 151.578C23.0727 152.622 21.7407 153.144 19.9887 153.144C18.8967 153.144 17.9307 152.934 17.0907 152.514C16.2507 152.082 15.6027 151.488 15.1467 150.732C14.6907 149.976 14.4627 149.118 14.4627 148.158C14.4627 147.21 14.6847 146.358 15.1287 145.602C15.5847 144.834 16.2027 144.24 16.9827 143.82C17.7747 143.388 18.6567 143.172 19.6287 143.172C20.5767 143.172 21.4347 143.376 22.2027 143.784C22.9707 144.192 23.5707 144.78 24.0027 145.548C24.4467 146.304 24.6687 147.186 24.6687 148.194ZM19.6467 145.296C19.0107 145.296 18.4767 145.476 18.0447 145.836C17.6127 146.196 17.3487 146.688 17.2527 147.312H22.0227C21.9267 146.7 21.6627 146.214 21.2307 145.854C20.7987 145.482 20.2707 145.296 19.6467 145.296ZM29.2202 144.594C29.5562 144.126 30.0062 143.772 30.5702 143.532C31.1462 143.292 31.8062 143.172 32.5502 143.172V145.764C32.2382 145.74 32.0282 145.728 31.9202 145.728C31.1162 145.728 30.4862 145.956 30.0302 146.412C29.5742 146.856 29.3462 147.528 29.3462 148.428V153H26.5382V143.316H29.2202V144.594ZM46.6218 143.172C47.8338 143.172 48.7938 143.532 49.5018 144.252C50.2218 144.96 50.5818 146.028 50.5818 147.456V153H47.7738V147.888C47.7738 147.12 47.6118 146.55 47.2878 146.178C46.9758 145.794 46.5258 145.602 45.9378 145.602C45.2778 145.602 44.7558 145.818 44.3718 146.25C43.9878 146.67 43.7958 147.3 43.7958 148.14V153H40.9878V147.888C40.9878 146.364 40.3758 145.602 39.1518 145.602C38.5038 145.602 37.9878 145.818 37.6038 146.25C37.2198 146.67 37.0278 147.3 37.0278 148.14V153H34.2198V143.316H36.9018V144.432C37.2618 144.024 37.6998 143.712 38.2158 143.496C38.7438 143.28 39.3198 143.172 39.9438 143.172C40.6278 143.172 41.2458 143.31 41.7978 143.586C42.3498 143.85 42.7938 144.24 43.1298 144.756C43.5258 144.252 44.0238 143.862 44.6238 143.586C45.2358 143.31 45.9018 143.172 46.6218 143.172ZM57.0047 143.172C58.5047 143.172 59.6567 143.532 60.4607 144.252C61.2647 144.96 61.6667 146.034 61.6667 147.474V153H59.0387V151.794C58.5107 152.694 57.5267 153.144 56.0867 153.144C55.3427 153.144 54.6947 153.018 54.1427 152.766C53.6027 152.514 53.1887 152.166 52.9007 151.722C52.6127 151.278 52.4687 150.774 52.4687 150.21C52.4687 149.31 52.8047 148.602 53.4767 148.086C54.1607 147.57 55.2107 147.312 56.6267 147.312H58.8587C58.8587 146.7 58.6727 146.232 58.3007 145.908C57.9287 145.572 57.3707 145.404 56.6267 145.404C56.1107 145.404 55.6007 145.488 55.0967 145.656C54.6047 145.812 54.1847 146.028 53.8367 146.304L52.8287 144.342C53.3567 143.97 53.9867 143.682 54.7187 143.478C55.4627 143.274 56.2247 143.172 57.0047 143.172ZM56.7887 151.254C57.2687 151.254 57.6947 151.146 58.0667 150.93C58.4387 150.702 58.7027 150.372 58.8587 149.94V148.95H56.9327C55.7807 148.95 55.2047 149.328 55.2047 150.084C55.2047 150.444 55.3427 150.732 55.6187 150.948C55.9067 151.152 56.2967 151.254 56.7887 151.254ZM58.0847 139.482H61.1087L57.8507 142.074H55.6547L58.0847 139.482ZM70.0941 143.172C71.2941 143.172 72.2601 143.532 72.9921 144.252C73.7361 144.972 74.1081 146.04 74.1081 147.456V153H71.3001V147.888C71.3001 147.12 71.1321 146.55 70.7961 146.178C70.4601 145.794 69.9741 145.602 69.3381 145.602C68.6301 145.602 68.0661 145.824 67.6461 146.268C67.2261 146.7 67.0161 147.348 67.0161 148.212V153H64.2081V143.316H66.8901V144.45C67.2621 144.042 67.7241 143.73 68.2761 143.514C68.8281 143.286 69.4341 143.172 70.0941 143.172ZM87.9791 153.216C86.6951 153.216 85.5311 152.94 84.4871 152.388C83.4551 151.824 82.6391 151.05 82.0391 150.066C81.4511 149.07 81.1571 147.948 81.1571 146.7C81.1571 145.452 81.4511 144.336 82.0391 143.352C82.6391 142.356 83.4551 141.582 84.4871 141.03C85.5311 140.466 86.7011 140.184 87.9971 140.184C89.0891 140.184 90.0731 140.376 90.9491 140.76C91.8371 141.144 92.5811 141.696 93.1811 142.416L91.3091 144.144C90.4571 143.16 89.4011 142.668 88.1411 142.668C87.3611 142.668 86.6651 142.842 86.0531 143.19C85.4411 143.526 84.9611 144 84.6131 144.612C84.2771 145.224 84.1091 145.92 84.1091 146.7C84.1091 147.48 84.2771 148.176 84.6131 148.788C84.9611 149.4 85.4411 149.88 86.0531 150.228C86.6651 150.564 87.3611 150.732 88.1411 150.732C89.4011 150.732 90.4571 150.234 91.3091 149.238L93.1811 150.966C92.5811 151.698 91.8371 152.256 90.9491 152.64C90.0611 153.024 89.0711 153.216 87.9791 153.216ZM99.2263 153.144C98.2063 153.144 97.2883 152.934 96.4723 152.514C95.6683 152.082 95.0383 151.488 94.5823 150.732C94.1263 149.976 93.8983 149.118 93.8983 148.158C93.8983 147.198 94.1263 146.34 94.5823 145.584C95.0383 144.828 95.6683 144.24 96.4723 143.82C97.2883 143.388 98.2063 143.172 99.2263 143.172C100.246 143.172 101.158 143.388 101.962 143.82C102.766 144.24 103.396 144.828 103.852 145.584C104.308 146.34 104.536 147.198 104.536 148.158C104.536 149.118 104.308 149.976 103.852 150.732C103.396 151.488 102.766 152.082 101.962 152.514C101.158 152.934 100.246 153.144 99.2263 153.144ZM99.2263 150.84C99.9463 150.84 100.534 150.6 100.99 150.12C101.458 149.628 101.692 148.974 101.692 148.158C101.692 147.342 101.458 146.694 100.99 146.214C100.534 145.722 99.9463 145.476 99.2263 145.476C98.5063 145.476 97.9123 145.722 97.4443 146.214C96.9763 146.694 96.7423 147.342 96.7423 148.158C96.7423 148.974 96.9763 149.628 97.4443 150.12C97.9123 150.6 98.5063 150.84 99.2263 150.84ZM109.095 144.594C109.431 144.126 109.881 143.772 110.445 143.532C111.021 143.292 111.681 143.172 112.425 143.172V145.764C112.113 145.74 111.903 145.728 111.795 145.728C110.991 145.728 110.361 145.956 109.905 146.412C109.449 146.856 109.221 147.528 109.221 148.428V153H106.413V143.316H109.095V144.594ZM123.871 139.644V153H121.189V151.884C120.493 152.724 119.485 153.144 118.165 153.144C117.253 153.144 116.425 152.94 115.681 152.532C114.949 152.124 114.373 151.542 113.953 150.786C113.533 150.03 113.323 149.154 113.323 148.158C113.323 147.162 113.533 146.286 113.953 145.53C114.373 144.774 114.949 144.192 115.681 143.784C116.425 143.376 117.253 143.172 118.165 143.172C119.401 143.172 120.367 143.562 121.063 144.342V139.644H123.871ZM118.651 150.84C119.359 150.84 119.947 150.6 120.415 150.12C120.883 149.628 121.117 148.974 121.117 148.158C121.117 147.342 120.883 146.694 120.415 146.214C119.947 145.722 119.359 145.476 118.651 145.476C117.931 145.476 117.337 145.722 116.869 146.214C116.401 146.694 116.167 147.342 116.167 148.158C116.167 148.974 116.401 149.628 116.869 150.12C117.337 150.6 117.931 150.84 118.651 150.84ZM135.956 148.194C135.956 148.23 135.938 148.482 135.902 148.95H128.576C128.708 149.55 129.02 150.024 129.512 150.372C130.004 150.72 130.616 150.894 131.348 150.894C131.852 150.894 132.296 150.822 132.68 150.678C133.076 150.522 133.442 150.282 133.778 149.958L135.272 151.578C134.36 152.622 133.028 153.144 131.276 153.144C130.184 153.144 129.218 152.934 128.378 152.514C127.538 152.082 126.89 151.488 126.434 150.732C125.978 149.976 125.75 149.118 125.75 148.158C125.75 147.21 125.972 146.358 126.416 145.602C126.872 144.834 127.49 144.24 128.27 143.82C129.062 143.388 129.944 143.172 130.916 143.172C131.864 143.172 132.722 143.376 133.49 143.784C134.258 144.192 134.858 144.78 135.29 145.548C135.734 146.304 135.956 147.186 135.956 148.194ZM130.934 145.296C130.298 145.296 129.764 145.476 129.332 145.836C128.9 146.196 128.636 146.688 128.54 147.312H133.31C133.214 146.7 132.95 146.214 132.518 145.854C132.086 145.482 131.558 145.296 130.934 145.296ZM140.507 144.594C140.843 144.126 141.293 143.772 141.857 143.532C142.433 143.292 143.093 143.172 143.837 143.172V145.764C143.525 145.74 143.315 145.728 143.207 145.728C142.403 145.728 141.773 145.956 141.317 146.412C140.861 146.856 140.633 147.528 140.633 148.428V153H137.825V143.316H140.507V144.594ZM150.027 153.144C149.007 153.144 148.089 152.934 147.273 152.514C146.469 152.082 145.839 151.488 145.383 150.732C144.927 149.976 144.699 149.118 144.699 148.158C144.699 147.198 144.927 146.34 145.383 145.584C145.839 144.828 146.469 144.24 147.273 143.82C148.089 143.388 149.007 143.172 150.027 143.172C151.047 143.172 151.959 143.388 152.763 143.82C153.567 144.24 154.197 144.828 154.653 145.584C155.109 146.34 155.337 147.198 155.337 148.158C155.337 149.118 155.109 149.976 154.653 150.732C154.197 151.488 153.567 152.082 152.763 152.514C151.959 152.934 151.047 153.144 150.027 153.144ZM150.027 150.84C150.747 150.84 151.335 150.6 151.791 150.12C152.259 149.628 152.493 148.974 152.493 148.158C152.493 147.342 152.259 146.694 151.791 146.214C151.335 145.722 150.747 145.476 150.027 145.476C149.307 145.476 148.713 145.722 148.245 146.214C147.777 146.694 147.543 147.342 147.543 148.158C147.543 148.974 147.777 149.628 148.245 150.12C148.713 150.6 149.307 150.84 150.027 150.84Z" fill="#23868B"/>
<path d="M51.136 94.096C51.136 88.96 52.24 84.304 54.448 80.128C56.704 76 59.8 72.736 63.736 70.336C67.72 67.984 72.208 66.808 77.2 66.808C82.192 66.808 86.656 67.984 90.592 70.336C94.576 72.736 97.672 76 99.88 80.128C102.136 84.304 103.264 88.984 103.264 94.168C103.264 98.536 102.496 102.472 100.96 105.976C99.424 109.528 97.216 112.504 94.336 114.904L87.424 107.416C91.36 104.008 93.328 99.784 93.328 94.744C93.328 91.624 92.632 88.84 91.24 86.392C89.896 83.944 88 82.024 85.552 80.632C83.104 79.288 80.32 78.616 77.2 78.616C74.08 78.616 71.296 79.288 68.848 80.632C66.4 82.024 64.48 83.944 63.088 86.392C61.744 88.84 61.072 91.624 61.072 94.744C61.072 99.784 63.064 104.008 67.048 107.416L60.136 114.904C57.208 112.504 54.976 109.528 53.44 105.976C51.904 102.424 51.136 98.464 51.136 94.096Z" fill="#23868B"/>
<path d="M90.032 47.008H100.688V67.456C97.952 69.52 94.784 71.104 91.184 72.208C87.584 73.312 83.96 73.864 80.312 73.864C75.08 73.864 70.376 72.76 66.2 70.552C62.024 68.296 58.736 65.2 56.336 61.264C53.984 57.28 52.808 52.792 52.808 47.8C52.808 42.808 53.984 38.344 56.336 34.408C58.736 30.424 62.048 27.328 66.272 25.12C70.496 22.864 75.248 21.736 80.528 21.736C84.944 21.736 88.952 22.48 92.552 23.968C96.152 25.456 99.176 27.616 101.624 30.448L94.136 37.36C90.536 33.568 86.192 31.672 81.104 31.672C77.888 31.672 75.032 32.344 72.536 33.688C70.04 35.032 68.096 36.928 66.704 39.376C65.312 41.824 64.616 44.632 64.616 47.8C64.616 50.92 65.312 53.704 66.704 56.152C68.096 58.6 70.016 60.52 72.464 61.912C74.96 63.256 77.792 63.928 80.96 63.928C84.32 63.928 87.344 63.208 90.032 61.768V47.008Z" fill="#4EBB90"/>
<path d="M77.288 47.384C75.976 47.384 74.872 46.936 73.976 46.04C73.08 45.144 72.632 44.024 72.632 42.68C72.632 41.304 73.08 40.2 73.976 39.368C74.872 38.504 75.976 38.072 77.288 38.072C78.6 38.072 79.704 38.504 80.6 39.368C81.496 40.2 81.944 41.304 81.944 42.68C81.944 44.024 81.496 45.144 80.6 46.04C79.704 46.936 78.6 47.384 77.288 47.384Z" fill="#23868B"/>
</svg>
