<svg width="241" height="117" viewBox="0 0 241 117" fill="none" xmlns="http://www.w3.org/2000/svg">
<path d="M95.008 72.502H97.672V77.614C96.988 78.13 96.196 78.526 95.296 78.802C94.396 79.078 93.49 79.216 92.578 79.216C91.27 79.216 90.094 78.94 89.05 78.388C88.006 77.824 87.184 77.05 86.584 76.066C85.996 75.07 85.702 73.948 85.702 72.7C85.702 71.452 85.996 70.336 86.584 69.352C87.184 68.356 88.012 67.582 89.068 67.03C90.124 66.466 91.312 66.184 92.632 66.184C93.736 66.184 94.738 66.37 95.638 66.742C96.538 67.114 97.294 67.654 97.906 68.362L96.034 70.09C95.134 69.142 94.048 68.668 92.776 68.668C91.972 68.668 91.258 68.836 90.634 69.172C90.01 69.508 89.524 69.982 89.176 70.594C88.828 71.206 88.654 71.908 88.654 72.7C88.654 73.48 88.828 74.176 89.176 74.788C89.524 75.4 90.004 75.88 90.616 76.228C91.24 76.564 91.948 76.732 92.74 76.732C93.58 76.732 94.336 76.552 95.008 76.192V72.502ZM109.669 74.194C109.669 74.23 109.651 74.482 109.615 74.95H102.289C102.421 75.55 102.733 76.024 103.225 76.372C103.717 76.72 104.329 76.894 105.061 76.894C105.565 76.894 106.009 76.822 106.393 76.678C106.789 76.522 107.155 76.282 107.491 75.958L108.985 77.578C108.073 78.622 106.741 79.144 104.989 79.144C103.897 79.144 102.931 78.934 102.091 78.514C101.251 78.082 100.603 77.488 100.147 76.732C99.6907 75.976 99.4627 75.118 99.4627 74.158C99.4627 73.21 99.6847 72.358 100.129 71.602C100.585 70.834 101.203 70.24 101.983 69.82C102.775 69.388 103.657 69.172 104.629 69.172C105.577 69.172 106.435 69.376 107.203 69.784C107.971 70.192 108.571 70.78 109.003 71.548C109.447 72.304 109.669 73.186 109.669 74.194ZM104.647 71.296C104.011 71.296 103.477 71.476 103.045 71.836C102.613 72.196 102.349 72.688 102.253 73.312H107.023C106.927 72.7 106.663 72.214 106.231 71.854C105.799 71.482 105.271 71.296 104.647 71.296ZM114.22 70.594C114.556 70.126 115.006 69.772 115.57 69.532C116.146 69.292 116.806 69.172 117.55 69.172V71.764C117.238 71.74 117.028 71.728 116.92 71.728C116.116 71.728 115.486 71.956 115.03 72.412C114.574 72.856 114.346 73.528 114.346 74.428V79H111.538V69.316H114.22V70.594ZM131.622 69.172C132.834 69.172 133.794 69.532 134.502 70.252C135.222 70.96 135.582 72.028 135.582 73.456V79H132.774V73.888C132.774 73.12 132.612 72.55 132.288 72.178C131.976 71.794 131.526 71.602 130.938 71.602C130.278 71.602 129.756 71.818 129.372 72.25C128.988 72.67 128.796 73.3 128.796 74.14V79H125.988V73.888C125.988 72.364 125.376 71.602 124.152 71.602C123.504 71.602 122.988 71.818 122.604 72.25C122.22 72.67 122.028 73.3 122.028 74.14V79H119.22V69.316H121.902V70.432C122.262 70.024 122.7 69.712 123.216 69.496C123.744 69.28 124.32 69.172 124.944 69.172C125.628 69.172 126.246 69.31 126.798 69.586C127.35 69.85 127.794 70.24 128.13 70.756C128.526 70.252 129.024 69.862 129.624 69.586C130.236 69.31 130.902 69.172 131.622 69.172ZM142.005 69.172C143.505 69.172 144.657 69.532 145.461 70.252C146.265 70.96 146.667 72.034 146.667 73.474V79H144.039V77.794C143.511 78.694 142.527 79.144 141.087 79.144C140.343 79.144 139.695 79.018 139.143 78.766C138.603 78.514 138.189 78.166 137.901 77.722C137.613 77.278 137.469 76.774 137.469 76.21C137.469 75.31 137.805 74.602 138.477 74.086C139.161 73.57 140.211 73.312 141.627 73.312H143.859C143.859 72.7 143.673 72.232 143.301 71.908C142.929 71.572 142.371 71.404 141.627 71.404C141.111 71.404 140.601 71.488 140.097 71.656C139.605 71.812 139.185 72.028 138.837 72.304L137.829 70.342C138.357 69.97 138.987 69.682 139.719 69.478C140.463 69.274 141.225 69.172 142.005 69.172ZM141.789 77.254C142.269 77.254 142.695 77.146 143.067 76.93C143.439 76.702 143.703 76.372 143.859 75.94V74.95H141.933C140.781 74.95 140.205 75.328 140.205 76.084C140.205 76.444 140.343 76.732 140.619 76.948C140.907 77.152 141.297 77.254 141.789 77.254ZM143.085 65.482H146.109L142.851 68.074H140.655L143.085 65.482ZM155.094 69.172C156.294 69.172 157.26 69.532 157.992 70.252C158.736 70.972 159.108 72.04 159.108 73.456V79H156.3V73.888C156.3 73.12 156.132 72.55 155.796 72.178C155.46 71.794 154.974 71.602 154.338 71.602C153.63 71.602 153.066 71.824 152.646 72.268C152.226 72.7 152.016 73.348 152.016 74.212V79H149.208V69.316H151.89V70.45C152.262 70.042 152.724 69.73 153.276 69.514C153.828 69.286 154.434 69.172 155.094 69.172ZM172.979 79.216C171.695 79.216 170.531 78.94 169.487 78.388C168.455 77.824 167.639 77.05 167.039 76.066C166.451 75.07 166.157 73.948 166.157 72.7C166.157 71.452 166.451 70.336 167.039 69.352C167.639 68.356 168.455 67.582 169.487 67.03C170.531 66.466 171.701 66.184 172.997 66.184C174.089 66.184 175.073 66.376 175.949 66.76C176.837 67.144 177.581 67.696 178.181 68.416L176.309 70.144C175.457 69.16 174.401 68.668 173.141 68.668C172.361 68.668 171.665 68.842 171.053 69.19C170.441 69.526 169.961 70 169.613 70.612C169.277 71.224 169.109 71.92 169.109 72.7C169.109 73.48 169.277 74.176 169.613 74.788C169.961 75.4 170.441 75.88 171.053 76.228C171.665 76.564 172.361 76.732 173.141 76.732C174.401 76.732 175.457 76.234 176.309 75.238L178.181 76.966C177.581 77.698 176.837 78.256 175.949 78.64C175.061 79.024 174.071 79.216 172.979 79.216ZM184.226 79.144C183.206 79.144 182.288 78.934 181.472 78.514C180.668 78.082 180.038 77.488 179.582 76.732C179.126 75.976 178.898 75.118 178.898 74.158C178.898 73.198 179.126 72.34 179.582 71.584C180.038 70.828 180.668 70.24 181.472 69.82C182.288 69.388 183.206 69.172 184.226 69.172C185.246 69.172 186.158 69.388 186.962 69.82C187.766 70.24 188.396 70.828 188.852 71.584C189.308 72.34 189.536 73.198 189.536 74.158C189.536 75.118 189.308 75.976 188.852 76.732C188.396 77.488 187.766 78.082 186.962 78.514C186.158 78.934 185.246 79.144 184.226 79.144ZM184.226 76.84C184.946 76.84 185.534 76.6 185.99 76.12C186.458 75.628 186.692 74.974 186.692 74.158C186.692 73.342 186.458 72.694 185.99 72.214C185.534 71.722 184.946 71.476 184.226 71.476C183.506 71.476 182.912 71.722 182.444 72.214C181.976 72.694 181.742 73.342 181.742 74.158C181.742 74.974 181.976 75.628 182.444 76.12C182.912 76.6 183.506 76.84 184.226 76.84ZM194.095 70.594C194.431 70.126 194.881 69.772 195.445 69.532C196.021 69.292 196.681 69.172 197.425 69.172V71.764C197.113 71.74 196.903 71.728 196.795 71.728C195.991 71.728 195.361 71.956 194.905 72.412C194.449 72.856 194.221 73.528 194.221 74.428V79H191.413V69.316H194.095V70.594ZM208.871 65.644V79H206.189V77.884C205.493 78.724 204.485 79.144 203.165 79.144C202.253 79.144 201.425 78.94 200.681 78.532C199.949 78.124 199.373 77.542 198.953 76.786C198.533 76.03 198.323 75.154 198.323 74.158C198.323 73.162 198.533 72.286 198.953 71.53C199.373 70.774 199.949 70.192 200.681 69.784C201.425 69.376 202.253 69.172 203.165 69.172C204.401 69.172 205.367 69.562 206.063 70.342V65.644H208.871ZM203.651 76.84C204.359 76.84 204.947 76.6 205.415 76.12C205.883 75.628 206.117 74.974 206.117 74.158C206.117 73.342 205.883 72.694 205.415 72.214C204.947 71.722 204.359 71.476 203.651 71.476C202.931 71.476 202.337 71.722 201.869 72.214C201.401 72.694 201.167 73.342 201.167 74.158C201.167 74.974 201.401 75.628 201.869 76.12C202.337 76.6 202.931 76.84 203.651 76.84ZM220.956 74.194C220.956 74.23 220.938 74.482 220.902 74.95H213.576C213.708 75.55 214.02 76.024 214.512 76.372C215.004 76.72 215.616 76.894 216.348 76.894C216.852 76.894 217.296 76.822 217.68 76.678C218.076 76.522 218.442 76.282 218.778 75.958L220.272 77.578C219.36 78.622 218.028 79.144 216.276 79.144C215.184 79.144 214.218 78.934 213.378 78.514C212.538 78.082 211.89 77.488 211.434 76.732C210.978 75.976 210.75 75.118 210.75 74.158C210.75 73.21 210.972 72.358 211.416 71.602C211.872 70.834 212.49 70.24 213.27 69.82C214.062 69.388 214.944 69.172 215.916 69.172C216.864 69.172 217.722 69.376 218.49 69.784C219.258 70.192 219.858 70.78 220.29 71.548C220.734 72.304 220.956 73.186 220.956 74.194ZM215.934 71.296C215.298 71.296 214.764 71.476 214.332 71.836C213.9 72.196 213.636 72.688 213.54 73.312H218.31C218.214 72.7 217.95 72.214 217.518 71.854C217.086 71.482 216.558 71.296 215.934 71.296ZM225.507 70.594C225.843 70.126 226.293 69.772 226.857 69.532C227.433 69.292 228.093 69.172 228.837 69.172V71.764C228.525 71.74 228.315 71.728 228.207 71.728C227.403 71.728 226.773 71.956 226.317 72.412C225.861 72.856 225.633 73.528 225.633 74.428V79H222.825V69.316H225.507V70.594ZM235.027 79.144C234.007 79.144 233.089 78.934 232.273 78.514C231.469 78.082 230.839 77.488 230.383 76.732C229.927 75.976 229.699 75.118 229.699 74.158C229.699 73.198 229.927 72.34 230.383 71.584C230.839 70.828 231.469 70.24 232.273 69.82C233.089 69.388 234.007 69.172 235.027 69.172C236.047 69.172 236.959 69.388 237.763 69.82C238.567 70.24 239.197 70.828 239.653 71.584C240.109 72.34 240.337 73.198 240.337 74.158C240.337 75.118 240.109 75.976 239.653 76.732C239.197 77.488 238.567 78.082 237.763 78.514C236.959 78.934 236.047 79.144 235.027 79.144ZM235.027 76.84C235.747 76.84 236.335 76.6 236.791 76.12C237.259 75.628 237.493 74.974 237.493 74.158C237.493 73.342 237.259 72.694 236.791 72.214C236.335 71.722 235.747 71.476 235.027 71.476C234.307 71.476 233.713 71.722 233.245 72.214C232.777 72.694 232.543 73.342 232.543 74.158C232.543 74.974 232.777 75.628 233.245 76.12C233.713 76.6 234.307 76.84 235.027 76.84Z" fill="#23848A"/>
<path d="M17.136 94.096C17.136 88.96 18.24 84.304 20.448 80.128C22.704 76 25.8 72.736 29.736 70.336C33.72 67.984 38.208 66.808 43.2 66.808C48.192 66.808 52.656 67.984 56.592 70.336C60.576 72.736 63.672 76 65.88 80.128C68.136 84.304 69.264 88.984 69.264 94.168C69.264 98.536 68.496 102.472 66.96 105.976C65.424 109.528 63.216 112.504 60.336 114.904L53.424 107.416C57.36 104.008 59.328 99.784 59.328 94.744C59.328 91.624 58.632 88.84 57.24 86.392C55.896 83.944 54 82.024 51.552 80.632C49.104 79.288 46.32 78.616 43.2 78.616C40.08 78.616 37.296 79.288 34.848 80.632C32.4 82.024 30.48 83.944 29.088 86.392C27.744 88.84 27.072 91.624 27.072 94.744C27.072 99.784 29.064 104.008 33.048 107.416L26.136 114.904C23.208 112.504 20.976 109.528 19.44 105.976C17.904 102.424 17.136 98.464 17.136 94.096Z" fill="#23868B"/>
<path d="M56.032 47.008H66.688V67.456C63.952 69.52 60.784 71.104 57.184 72.208C53.584 73.312 49.96 73.864 46.312 73.864C41.08 73.864 36.376 72.76 32.2 70.552C28.024 68.296 24.736 65.2 22.336 61.264C19.984 57.28 18.808 52.792 18.808 47.8C18.808 42.808 19.984 38.344 22.336 34.408C24.736 30.424 28.048 27.328 32.272 25.12C36.496 22.864 41.248 21.736 46.528 21.736C50.944 21.736 54.952 22.48 58.552 23.968C62.152 25.456 65.176 27.616 67.624 30.448L60.136 37.36C56.536 33.568 52.192 31.672 47.104 31.672C43.888 31.672 41.032 32.344 38.536 33.688C36.04 35.032 34.096 36.928 32.704 39.376C31.312 41.824 30.616 44.632 30.616 47.8C30.616 50.92 31.312 53.704 32.704 56.152C34.096 58.6 36.016 60.52 38.464 61.912C40.96 63.256 43.792 63.928 46.96 63.928C50.32 63.928 53.344 63.208 56.032 61.768V47.008Z" fill="#4EBB90"/>
<path d="M43.288 47.384C41.976 47.384 40.872 46.936 39.976 46.04C39.08 45.144 38.632 44.024 38.632 42.68C38.632 41.304 39.08 40.2 39.976 39.368C40.872 38.504 41.976 38.072 43.288 38.072C44.6 38.072 45.704 38.504 46.6 39.368C47.496 40.2 47.944 41.304 47.944 42.68C47.944 44.024 47.496 45.144 46.6 46.04C45.704 46.936 44.6 47.384 43.288 47.384Z" fill="#23868B"/>
</svg>
