<?xml version="1.0" encoding="utf-8"?>
<!-- Generator: Adobe Illustrator 24.2.1, SVG Export Plug-In . SVG Version: 6.00 Build 0)  -->
<svg version="1.1" id="Layer_1" xmlns="http://www.w3.org/2000/svg" xmlns:xlink="http://www.w3.org/1999/xlink" x="0px" y="0px"
	 viewBox="0 0 154.6 124.5" style="enable-background:new 0 0 154.6 124.5;" xml:space="preserve">
<style type="text/css">
	.st0{fill:#FFFFFF;}
</style>
<path class="st0" d="M9.3,117.8H12v5.1c-0.7,0.5-1.5,0.9-2.4,1.2c-0.9,0.3-1.8,0.4-2.7,0.4c-1.3,0-2.5-0.3-3.5-0.8
	c-1-0.6-1.9-1.3-2.5-2.3c-0.6-1-0.9-2.1-0.9-3.4s0.3-2.4,0.9-3.3c0.6-1,1.4-1.8,2.5-2.3c1.1-0.6,2.2-0.8,3.6-0.8
	c1.1,0,2.1,0.2,3,0.6c0.9,0.4,1.7,0.9,2.3,1.6l-1.9,1.7c-0.9-0.9-2-1.4-3.3-1.4c-0.8,0-1.5,0.2-2.1,0.5s-1.1,0.8-1.5,1.4
	S3,117.2,3,118c0,0.8,0.2,1.5,0.5,2.1s0.8,1.1,1.4,1.4c0.6,0.3,1.3,0.5,2.1,0.5c0.8,0,1.6-0.2,2.3-0.5V117.8z M24,119.5
	c0,0,0,0.3-0.1,0.8h-7.3c0.1,0.6,0.4,1.1,0.9,1.4c0.5,0.3,1.1,0.5,1.8,0.5c0.5,0,0.9-0.1,1.3-0.2c0.4-0.2,0.8-0.4,1.1-0.7l1.5,1.6
	c-0.9,1-2.2,1.6-4,1.6c-1.1,0-2.1-0.2-2.9-0.6c-0.8-0.4-1.5-1-1.9-1.8c-0.5-0.8-0.7-1.6-0.7-2.6c0-0.9,0.2-1.8,0.7-2.6
	c0.5-0.8,1.1-1.4,1.9-1.8c0.8-0.4,1.7-0.6,2.6-0.6c0.9,0,1.8,0.2,2.6,0.6c0.8,0.4,1.4,1,1.8,1.8C23.7,117.6,24,118.5,24,119.5z
	 M18.9,116.6c-0.6,0-1.2,0.2-1.6,0.5c-0.4,0.4-0.7,0.9-0.8,1.5h4.8c-0.1-0.6-0.4-1.1-0.8-1.5C20.1,116.7,19.6,116.6,18.9,116.6z
	 M28.5,115.9c0.3-0.5,0.8-0.8,1.4-1.1c0.6-0.2,1.2-0.4,2-0.4v2.6c-0.3,0-0.5,0-0.6,0c-0.8,0-1.4,0.2-1.9,0.7c-0.5,0.4-0.7,1.1-0.7,2
	v4.6h-2.8v-9.7h2.7V115.9z M45.9,114.4c1.2,0,2.2,0.4,2.9,1.1c0.7,0.7,1.1,1.8,1.1,3.2v5.5h-2.8v-5.1c0-0.8-0.2-1.3-0.5-1.7
	c-0.3-0.4-0.8-0.6-1.3-0.6c-0.7,0-1.2,0.2-1.6,0.6c-0.4,0.4-0.6,1.1-0.6,1.9v4.9h-2.8v-5.1c0-1.5-0.6-2.3-1.8-2.3
	c-0.6,0-1.2,0.2-1.5,0.6c-0.4,0.4-0.6,1.1-0.6,1.9v4.9h-2.8v-9.7h2.7v1.1c0.4-0.4,0.8-0.7,1.3-0.9c0.5-0.2,1.1-0.3,1.7-0.3
	c0.7,0,1.3,0.1,1.9,0.4c0.6,0.3,1,0.7,1.3,1.2c0.4-0.5,0.9-0.9,1.5-1.2C44.5,114.6,45.2,114.4,45.9,114.4z M56.3,114.4
	c1.5,0,2.7,0.4,3.5,1.1c0.8,0.7,1.2,1.8,1.2,3.2v5.5h-2.6v-1.2c-0.5,0.9-1.5,1.3-3,1.3c-0.7,0-1.4-0.1-1.9-0.4c-0.5-0.3-1-0.6-1.2-1
	c-0.3-0.4-0.4-0.9-0.4-1.5c0-0.9,0.3-1.6,1-2.1c0.7-0.5,1.7-0.8,3.2-0.8h2.2c0-0.6-0.2-1.1-0.6-1.4c-0.4-0.3-0.9-0.5-1.7-0.5
	c-0.5,0-1,0.1-1.5,0.3c-0.5,0.2-0.9,0.4-1.3,0.6l-1-2c0.5-0.4,1.2-0.7,1.9-0.9C54.8,114.5,55.5,114.4,56.3,114.4z M56.1,122.5
	c0.5,0,0.9-0.1,1.3-0.3c0.4-0.2,0.6-0.6,0.8-1v-1h-1.9c-1.2,0-1.7,0.4-1.7,1.1c0,0.4,0.1,0.6,0.4,0.9
	C55.2,122.4,55.6,122.5,56.1,122.5z M57.4,110.7h3l-3.3,2.6H55L57.4,110.7z M69.4,114.4c1.2,0,2.2,0.4,2.9,1.1
	c0.7,0.7,1.1,1.8,1.1,3.2v5.5h-2.8v-5.1c0-0.8-0.2-1.3-0.5-1.7c-0.3-0.4-0.8-0.6-1.5-0.6c-0.7,0-1.3,0.2-1.7,0.7
	c-0.4,0.4-0.6,1.1-0.6,1.9v4.8h-2.8v-9.7h2.7v1.1c0.4-0.4,0.8-0.7,1.4-0.9C68.1,114.5,68.7,114.4,69.4,114.4z M87.3,124.5
	c-1.3,0-2.4-0.3-3.5-0.8c-1-0.6-1.8-1.3-2.4-2.3c-0.6-1-0.9-2.1-0.9-3.4s0.3-2.4,0.9-3.3c0.6-1,1.4-1.8,2.4-2.3
	c1-0.6,2.2-0.8,3.5-0.8c1.1,0,2.1,0.2,3,0.6c0.9,0.4,1.6,0.9,2.2,1.7l-1.9,1.7c-0.9-1-1.9-1.5-3.2-1.5c-0.8,0-1.5,0.2-2.1,0.5
	c-0.6,0.3-1.1,0.8-1.4,1.4c-0.3,0.6-0.5,1.3-0.5,2.1s0.2,1.5,0.5,2.1c0.3,0.6,0.8,1.1,1.4,1.4c0.6,0.3,1.3,0.5,2.1,0.5
	c1.3,0,2.3-0.5,3.2-1.5l1.9,1.7c-0.6,0.7-1.3,1.3-2.2,1.7S88.4,124.5,87.3,124.5z M98.5,124.4c-1,0-1.9-0.2-2.8-0.6
	c-0.8-0.4-1.4-1-1.9-1.8c-0.5-0.8-0.7-1.6-0.7-2.6c0-1,0.2-1.8,0.7-2.6s1.1-1.3,1.9-1.8c0.8-0.4,1.7-0.6,2.8-0.6
	c1,0,1.9,0.2,2.7,0.6c0.8,0.4,1.4,1,1.9,1.8c0.5,0.8,0.7,1.6,0.7,2.6c0,1-0.2,1.8-0.7,2.6c-0.5,0.8-1.1,1.4-1.9,1.8
	C100.5,124.2,99.5,124.4,98.5,124.4z M98.5,122.1c0.7,0,1.3-0.2,1.8-0.7c0.5-0.5,0.7-1.1,0.7-2c0-0.8-0.2-1.5-0.7-1.9
	c-0.5-0.5-1-0.7-1.8-0.7c-0.7,0-1.3,0.2-1.8,0.7c-0.5,0.5-0.7,1.1-0.7,1.9c0,0.8,0.2,1.5,0.7,2C97.2,121.9,97.8,122.1,98.5,122.1z
	 M108.4,115.9c0.3-0.5,0.8-0.8,1.3-1.1c0.6-0.2,1.2-0.4,2-0.4v2.6c-0.3,0-0.5,0-0.6,0c-0.8,0-1.4,0.2-1.9,0.7
	c-0.5,0.4-0.7,1.1-0.7,2v4.6h-2.8v-9.7h2.7V115.9z M123.2,110.9v13.4h-2.7v-1.1c-0.7,0.8-1.7,1.3-3,1.3c-0.9,0-1.7-0.2-2.5-0.6
	c-0.7-0.4-1.3-1-1.7-1.7c-0.4-0.8-0.6-1.6-0.6-2.6s0.2-1.9,0.6-2.6c0.4-0.8,1-1.3,1.7-1.7c0.7-0.4,1.6-0.6,2.5-0.6
	c1.2,0,2.2,0.4,2.9,1.2v-4.7H123.2z M117.9,122.1c0.7,0,1.3-0.2,1.8-0.7c0.5-0.5,0.7-1.1,0.7-2c0-0.8-0.2-1.5-0.7-1.9
	c-0.5-0.5-1.1-0.7-1.8-0.7c-0.7,0-1.3,0.2-1.8,0.7c-0.5,0.5-0.7,1.1-0.7,1.9c0,0.8,0.2,1.5,0.7,2
	C116.6,121.9,117.2,122.1,117.9,122.1z M135.3,119.5c0,0,0,0.3-0.1,0.8h-7.3c0.1,0.6,0.4,1.1,0.9,1.4c0.5,0.3,1.1,0.5,1.8,0.5
	c0.5,0,0.9-0.1,1.3-0.2c0.4-0.2,0.8-0.4,1.1-0.7l1.5,1.6c-0.9,1-2.2,1.6-4,1.6c-1.1,0-2.1-0.2-2.9-0.6c-0.8-0.4-1.5-1-1.9-1.8
	c-0.5-0.8-0.7-1.6-0.7-2.6c0-0.9,0.2-1.8,0.7-2.6c0.5-0.8,1.1-1.4,1.9-1.8c0.8-0.4,1.7-0.6,2.6-0.6c0.9,0,1.8,0.2,2.6,0.6
	c0.8,0.4,1.4,1,1.8,1.8C135,117.6,135.3,118.5,135.3,119.5z M130.2,116.6c-0.6,0-1.2,0.2-1.6,0.5s-0.7,0.9-0.8,1.5h4.8
	c-0.1-0.6-0.4-1.1-0.8-1.5C131.4,116.7,130.9,116.6,130.2,116.6z M139.8,115.9c0.3-0.5,0.8-0.8,1.3-1.1c0.6-0.2,1.2-0.4,2-0.4v2.6
	c-0.3,0-0.5,0-0.6,0c-0.8,0-1.4,0.2-1.9,0.7c-0.5,0.4-0.7,1.1-0.7,2v4.6h-2.8v-9.7h2.7V115.9z M149.3,124.4c-1,0-1.9-0.2-2.8-0.6
	c-0.8-0.4-1.4-1-1.9-1.8c-0.5-0.8-0.7-1.6-0.7-2.6c0-1,0.2-1.8,0.7-2.6c0.5-0.8,1.1-1.3,1.9-1.8c0.8-0.4,1.7-0.6,2.8-0.6
	c1,0,1.9,0.2,2.7,0.6c0.8,0.4,1.4,1,1.9,1.8s0.7,1.6,0.7,2.6c0,1-0.2,1.8-0.7,2.6c-0.5,0.8-1.1,1.4-1.9,1.8
	C151.3,124.2,150.3,124.4,149.3,124.4z M149.3,122.1c0.7,0,1.3-0.2,1.8-0.7c0.5-0.5,0.7-1.1,0.7-2c0-0.8-0.2-1.5-0.7-1.9
	c-0.5-0.5-1-0.7-1.8-0.7c-0.7,0-1.3,0.2-1.8,0.7c-0.5,0.5-0.7,1.1-0.7,1.9c0,0.8,0.2,1.5,0.7,2C148,121.9,148.6,122.1,149.3,122.1z"
	/>
<path class="st0" d="M50.4,72.4c0-5.1,1.1-9.8,3.3-14c2.3-4.1,5.4-7.4,9.3-9.8c4-2.4,8.5-3.5,13.5-3.5c5,0,9.5,1.2,13.4,3.5
	c4,2.4,7.1,5.7,9.3,9.8c2.3,4.2,3.4,8.9,3.4,14c0,4.4-0.8,8.3-2.3,11.8c-1.5,3.6-3.7,6.5-6.6,8.9l-6.9-7.5c3.9-3.4,5.9-7.6,5.9-12.7
	c0-3.1-0.7-5.9-2.1-8.4c-1.3-2.4-3.2-4.4-5.7-5.8c-2.4-1.3-5.2-2-8.4-2c-3.1,0-5.9,0.7-8.4,2c-2.4,1.4-4.4,3.3-5.8,5.8
	c-1.3,2.4-2,5.2-2,8.4c0,5,2,9.3,6,12.7l-6.9,7.5c-2.9-2.4-5.2-5.4-6.7-8.9C51.2,80.7,50.4,76.7,50.4,72.4z"/>
<path class="st0" d="M89.3,25.3H100v20.4c-2.7,2.1-5.9,3.6-9.5,4.8c-3.6,1.1-7.2,1.7-10.9,1.7c-5.2,0-9.9-1.1-14.1-3.3
	c-4.2-2.3-7.5-5.4-9.9-9.3c-2.4-4-3.5-8.5-3.5-13.5s1.2-9.5,3.5-13.4c2.4-4,5.7-7.1,9.9-9.3c4.2-2.3,9-3.4,14.3-3.4
	c4.4,0,8.4,0.7,12,2.2c3.6,1.5,6.6,3.6,9.1,6.5l-7.5,6.9c-3.6-3.8-7.9-5.7-13-5.7c-3.2,0-6.1,0.7-8.6,2c-2.5,1.3-4.4,3.2-5.8,5.7
	c-1.4,2.4-2.1,5.3-2.1,8.4c0,3.1,0.7,5.9,2.1,8.4c1.4,2.4,3.3,4.4,5.8,5.8c2.5,1.3,5.3,2,8.5,2c3.4,0,6.4-0.7,9.1-2.2V25.3z"/>
<path class="st0" d="M76.6,25.6c-1.3,0-2.4-0.4-3.3-1.3c-0.9-0.9-1.3-2-1.3-3.4c0-1.4,0.4-2.5,1.3-3.3c0.9-0.9,2-1.3,3.3-1.3
	c1.3,0,2.4,0.4,3.3,1.3c0.9,0.8,1.3,1.9,1.3,3.3c0,1.3-0.4,2.5-1.3,3.4C79,25.2,77.9,25.6,76.6,25.6z"/>
</svg>
